<?xml version="1.0" encoding="UTF-8" standalone="no"?>
<!-- Created with Inkscape (http://www.inkscape.org/) -->

<svg
   width="306.96094"
   height="348.25977"
   viewBox="0 0 81.216747 92.14373"
   version="1.1"
   id="svg5"
   inkscape:version="1.3 (0e150ed6c4, 2023-07-21)"
   sodipodi:docname="logo_M_hex_bgW.svg"
   xmlns:inkscape="http://www.inkscape.org/namespaces/inkscape"
   xmlns:sodipodi="http://sodipodi.sourceforge.net/DTD/sodipodi-0.dtd"
   xmlns="http://www.w3.org/2000/svg"
   xmlns:svg="http://www.w3.org/2000/svg">
  <sodipodi:namedview
     id="namedview7"
     pagecolor="#ffffff"
     bordercolor="#666666"
     borderopacity="1.0"
     inkscape:showpageshadow="2"
     inkscape:pageopacity="0.0"
     inkscape:pagecheckerboard="0"
     inkscape:deskcolor="#d1d1d1"
     inkscape:document-units="mm"
     showgrid="false"
     inkscape:zoom="0.70710678"
     inkscape:cx="-550.12908"
     inkscape:cy="450.42702"
     inkscape:window-width="3440"
     inkscape:window-height="1377"
     inkscape:window-x="1432"
     inkscape:window-y="921"
     inkscape:window-maximized="1"
     inkscape:current-layer="layer1"
     showguides="true" />
  <defs
     id="defs2" />
  <g
     inkscape:label="Capa 1"
     inkscape:groupmode="layer"
     id="layer1">
    <g
       id="g2"
       transform="translate(132.33921,-61.753337)">
      <path
         id="text1"
         style="font-weight:600;font-size:52.7489px;line-height:0.9;font-family:Figtree;-inkscape-font-specification:'Figtree Semi-Bold';text-align:center;letter-spacing:4.27267px;text-anchor:middle;fill:#111827;fill-opacity:1;stroke-width:1.36453;stroke-miterlimit:9"
         d="M -109.85008,123.20036 V 92.450055 h 6.54086 l 11.604758,14.233005 11.49926,-14.233005 h 6.593613 v 30.750305 h -6.118873 v -22.7113 l -12.026749,14.80408 -11.973999,-14.71622 v 22.62344 z" />
      <path
         id="path2884-1-4-3"
         style="color:#000000;fill:#0066ff;fill-opacity:1;-inkscape-stroke:none"
         d="m -91.730835,61.753337 c -2.922504,0 -5.291667,2.369162 -5.291667,5.291666 5.25e-4,0.245529 0.01814,0.490723 0.05271,0.733806 l -26.822138,15.485359 c -0.92991,-0.726102 -2.0758,-1.120618 -3.25561,-1.120862 -2.92251,-2e-6 -5.29167,2.369162 -5.29167,5.291667 7.9e-4,2.155576 1.30902,4.095236 3.30729,4.903577 l 5.2e-4,30.9733 c -1.99848,0.80818 -3.30694,2.74787 -3.30781,4.90358 0,2.92251 2.36916,5.29167 5.29167,5.29167 1.17952,-6.2e-4 2.32502,-0.39531 3.25458,-1.12138 l 26.823168,15.48639 c -0.03455,0.24291 -0.05216,0.48793 -0.05271,0.73329 -2e-6,2.92251 2.369162,5.29167 5.291667,5.29167 2.922503,0 5.291669,-2.36916 5.291667,-5.29167 -1.8e-4,-0.24551 -0.01745,-0.4907 -0.05168,-0.73381 l 26.822652,-15.48587 c 0.929424,0.72596 2.074723,1.12064 3.254065,1.12138 2.922503,0 5.291669,-2.36916 5.291667,-5.29167 1.4e-4,-2.1562 -1.30801,-4.09685 -3.306775,-4.90564 l -5.17e-4,-30.97124 c 1.998272,-0.808341 3.306506,-2.748001 3.307292,-4.903577 0,-2.922501 -2.369166,-5.291663 -5.291667,-5.291667 -1.17952,6.19e-4 -2.325017,0.395307 -3.254581,1.121379 L -86.491878,67.778292 c 0.03455,-0.242912 0.05216,-0.487933 0.05271,-0.733289 0,-2.922502 -2.369165,-5.291663 -5.291667,-5.291666 z m -3.254065,9.461954 c 0.668409,0.490921 1.442849,0.817867 2.260844,0.954464 v 9.933761 c -1.193708,0.420327 -1.993467,1.546687 -1.996777,2.812231 0.003,1.265538 0.803069,2.391915 1.996777,2.812232 v 4.725292 h 1.984375 v -4.724259 c 1.194878,-0.419745 1.995654,-1.546808 1.998844,-2.813265 -3.4e-4,-1.268921 -0.801646,-2.399419 -1.998844,-2.819983 v -9.925492 c 0.818943,-0.136363 1.594313,-0.463505 2.263428,-0.954981 l 26.823685,15.48691 c -0.0347,0.242729 -0.05248,0.487576 -0.05323,0.732772 7.86e-4,2.155576 1.309019,4.095236 3.307291,4.903577 v 30.9733 c -0.761114,0.33185 -1.43346,0.83814 -1.962671,1.47795 l -10.166821,-5.86889 v 2.29133 l 9.165332,5.29115 c -0.208391,0.54774 -0.324346,1.1263 -0.343131,1.71204 7.21e-4,0.24537 0.01851,0.49039 0.05323,0.73329 l -26.822652,15.48587 c -0.669416,-0.49161 -1.445157,-0.81877 -2.264461,-0.95498 v -7.06055 c 1.194698,-0.41968 1.995444,-1.54651 1.998844,-2.81274 -1.2e-4,-1.26912 -0.801466,-2.39988 -1.998844,-2.8205 v -7.63933 h -1.984375 v 7.64759 c -1.193708,0.42033 -1.993467,1.54669 -1.996777,2.81224 0.003,1.2655 0.803069,2.39192 1.996777,2.81223 v 7.06158 c -0.81822,0.13667 -1.592849,0.4638 -2.261361,0.95498 l -26.823173,-15.48639 c 0.0346,-0.24291 0.0522,-0.48793 0.0527,-0.73329 -0.002,-0.59181 -0.10336,-1.17908 -0.29972,-1.73736 l 9.17257,-5.2958 v -2.29185 l -10.16372,5.86786 c -0.54776,-0.63591 -1.23892,-1.1324 -2.01642,-1.44849 V 92.33855 c 1.99828,-0.808338 3.3065,-2.747999 3.30729,-4.903577 -1.9e-4,-0.245505 -0.0175,-0.490699 -0.0517,-0.733805 z" />
      <path
         id="circle1118-3-0"
         style="fill:#ffffff;stroke-width:3.12153;stroke-miterlimit:8.4;paint-order:stroke fill markers"
         d="m -124.10461,87.435046 a 2.9430032,2.9430032 0 0 1 -2.94301,2.943004 2.9430032,2.9430032 0 0 1 -2.943,-2.943004 2.9430032,2.9430032 0 0 1 2.943,-2.943003 2.9430032,2.9430032 0 0 1 2.94301,2.943003 z m 0,40.780304 a 2.9430032,2.9430032 0 0 1 -2.94301,2.94301 2.9430032,2.9430032 0 0 1 -2.943,-2.94301 2.9430032,2.9430032 0 0 1 2.943,-2.943 2.9430032,2.9430032 0 0 1 2.94301,2.943 z m 35.316767,20.39016 a 2.9430032,2.9430032 0 0 1 -2.943003,2.943 2.9430032,2.9430032 0 0 1 -2.943003,-2.943 2.9430032,2.9430032 0 0 1 2.943003,-2.94301 2.9430032,2.9430032 0 0 1 2.943003,2.94301 z m 35.316791,-20.39016 a 2.9430032,2.9430032 0 0 1 -2.94301,2.94301 2.9430032,2.9430032 0 0 1 -2.943,-2.94301 2.9430032,2.9430032 0 0 1 2.943,-2.943 2.9430032,2.9430032 0 0 1 2.94301,2.943 z m 0,-40.780304 a 2.9430032,2.9430032 0 0 1 -2.94301,2.943004 2.9430032,2.9430032 0 0 1 -2.943,-2.943004 2.9430032,2.9430032 0 0 1 2.943,-2.943003 2.9430032,2.9430032 0 0 1 2.94301,2.943003 z M -88.787835,67.044902 a 2.9430032,2.9430032 0 0 1 -2.943003,2.943003 2.9430032,2.9430032 0 0 1 -2.943003,-2.943003 2.9430032,2.9430032 0 0 1 2.943003,-2.943004 2.9430032,2.9430032 0 0 1 2.943003,2.943004 z" />
    </g>
  </g>
</svg>
